# xmcd
#
# Track frame offsets: 
#        150
#        13293
#        26487
#        42730
#        59605
#        73026
#        120612
#        136669
#        152814
#        180570
#        207116
#
# Disc length: 3337 seconds
#
# Revision: 0
# Processed by: cddbd v1.5.2PL0 Copyright (c) Steve Scherf et al.
# Submitted via: ExactAudioCopy v0.95b4
#
DISCID=9c0d070b
DTITLE=Gary Moore - Bad For You Baby
DYEAR=2008
DGENRE=Blues
TTITLE0=Bad  for you baby - Gary Moore
TTITLE1=Down the line - Gary Moore
TTITLE2=Umbrella man - Gary Moore
TTITLE3=Holding man - Gary Moore
TTITLE4=Walkin' thru the park - Gary Moore
TTITLE5=I love you more than you'll ever know - Gary Moore
TTITLE6=Mojo boogie - Gary Moore
TTITLE7=Someday baby - Gary Moore
TTITLE8=Did you ever feel lonely? - Gary Moore
TTITLE9=Preacher man blues - Gary Moore
TTITLE10=Trouble ain't for behind - Gary Moore
EXTD=
EXTT0=
EXTT1=
EXTT2=
EXTT3=
EXTT4=
EXTT5=
EXTT6=
EXTT7=
EXTT8=
EXTT9=
EXTT10=
PLAYORDER=
